<svg width="210" height="56" viewBox="0 0 210 56" fill="none" xmlns="http://www.w3.org/2000/svg">
<mask id="mask0_4092_393" style="mask-type:luminance" maskUnits="userSpaceOnUse" x="39" y="7" width="165" height="26">
<path d="M203.012 7.27554H39.1332V32.2415H203.012V7.27554Z" fill="white"/>
</mask>
<g mask="url(#mask0_4092_393)">
<path d="M46.8404 27.2895C45.7345 27.2895 44.719 27.1879 43.7824 26.9735C42.8458 26.7591 42.0333 26.4545 41.3337 26.0597C40.6341 25.6648 40.0924 25.1684 39.7087 24.5817C39.3251 23.9952 39.1333 23.3183 39.1333 22.5399C39.1333 22.4609 39.1333 22.382 39.1333 22.303C39.1333 22.224 39.1445 22.1564 39.1671 22.0999H43.3649C43.3649 22.1338 43.3649 22.1789 43.3649 22.2353C43.3649 22.2804 43.3649 22.3256 43.3649 22.3707C43.3875 22.8332 43.5567 23.2055 43.8839 23.4988C44.2112 23.7922 44.6513 23.9952 45.1929 24.1193C45.7346 24.2435 46.2987 24.311 46.8968 24.311C47.461 24.311 48.0027 24.2773 48.533 24.1982C49.0634 24.1193 49.5035 23.9613 49.8646 23.7357C50.2257 23.4988 50.395 23.1941 50.395 22.8106C50.395 22.3255 50.1806 21.9758 49.7631 21.7389C49.3342 21.502 48.7588 21.3215 48.014 21.1861C47.2692 21.0507 46.4342 20.8928 45.5089 20.7236C44.7415 20.5882 43.9968 20.4189 43.2972 20.2046C42.5976 19.9902 41.9543 19.7195 41.4014 19.3811C40.8372 19.0426 40.3971 18.6139 40.0698 18.0724C39.7426 17.5422 39.5733 16.8766 39.5733 16.0869C39.5733 15.252 39.7539 14.5413 40.1263 13.9434C40.4986 13.3455 41.0177 12.8491 41.6948 12.4655C42.3718 12.0819 43.173 11.7999 44.087 11.6081C45.0011 11.4276 45.9941 11.3373 47.0548 11.3373C48.0365 11.3373 48.9732 11.4276 49.8421 11.6081C50.7109 11.7886 51.467 12.0594 52.0989 12.4204C52.7421 12.7814 53.2386 13.2214 53.6222 13.7629C54.0059 14.3044 54.1865 14.9136 54.1865 15.5905C54.1865 15.7033 54.1865 15.8161 54.1865 15.9063C54.1865 16.0079 54.1752 16.0756 54.1526 16.1433H49.9549V15.9402C49.9549 15.5679 49.8195 15.2746 49.5599 15.0377C49.3004 14.8008 48.9393 14.6315 48.4879 14.4962C48.0366 14.3608 47.5175 14.3044 46.942 14.3044C46.6486 14.3044 46.3214 14.3269 45.9603 14.3608C45.5992 14.3946 45.2381 14.4623 44.8995 14.5638C44.561 14.6654 44.2902 14.8008 44.087 14.97C43.8839 15.1392 43.7824 15.3648 43.7824 15.6356C43.7824 15.9853 43.9629 16.2561 44.3353 16.4592C44.7077 16.6623 45.1929 16.8202 45.8023 16.933C46.4116 17.0458 47.0661 17.1699 47.7883 17.3053C48.6008 17.4745 49.4132 17.655 50.2257 17.8355C51.0381 18.016 51.7829 18.2642 52.46 18.5801C53.1371 18.8847 53.6674 19.336 54.0511 19.9113C54.4347 20.4867 54.6266 21.2651 54.6266 22.224C54.6266 23.1492 54.4347 23.9387 54.0624 24.5817C53.69 25.2249 53.1483 25.7551 52.46 26.1499C51.7604 26.5449 50.9479 26.8268 50 27.0073C49.0521 27.1879 47.9801 27.2895 46.8404 27.2895Z" fill="white"/>
<path d="M63.0114 27.2889C61.1947 27.2889 59.7954 26.8264 58.7911 25.9014C57.7981 24.9762 57.3015 23.5209 57.3015 21.5241V11.7092H61.5332V20.8359C61.5332 21.4 61.6009 21.8625 61.7362 22.2461C61.8717 22.6184 62.0748 22.9229 62.3456 23.1598C62.6163 23.3968 62.9436 23.566 63.316 23.6675C63.6884 23.7691 64.1172 23.8255 64.6024 23.8255C65.3021 23.8255 65.934 23.6675 66.4983 23.363C67.0625 23.0584 67.5251 22.6184 67.8748 22.0769C68.2248 21.5241 68.3939 20.9036 68.3939 20.2041V11.7205H72.6481V26.9618H69.1726L68.8566 24.649H68.6535C68.1909 25.247 67.6718 25.7433 67.0849 26.1382C66.5095 26.533 65.8663 26.8264 65.1554 27.0181C64.4445 27.2099 63.7449 27.2889 63.0114 27.2889Z" fill="white"/>
<path d="M76.1908 32.2416V11.6981H79.6437L80.016 13.898H80.2193C80.8173 12.9729 81.5734 12.3186 82.4987 11.9237C83.4127 11.5402 84.4169 11.3484 85.5002 11.3484C86.9108 11.3484 88.1295 11.6304 89.1677 12.1945C90.2057 12.7585 90.9956 13.6272 91.5599 14.8005C92.1241 15.9738 92.3949 17.4855 92.3949 19.3244C92.3949 21.1181 92.1128 22.6073 91.5374 23.7805C90.9619 24.9539 90.1833 25.8338 89.1789 26.4204C88.1746 26.9958 87.001 27.2892 85.6469 27.2892C84.9699 27.2892 84.3155 27.2101 83.6947 27.0522C83.063 26.8943 82.4873 26.6574 81.9682 26.3414C81.4491 26.0256 80.9978 25.6307 80.6368 25.1682H80.4674V32.2416H76.1908ZM84.2704 23.837C85.1392 23.837 85.85 23.6791 86.4142 23.3631C86.9784 23.0473 87.3848 22.5622 87.6556 21.9191C87.9264 21.2761 88.0617 20.509 88.0617 19.6177V19.0423C88.0617 18.1173 87.9264 17.3388 87.6556 16.6958C87.3848 16.064 86.9672 15.5789 86.4142 15.263C85.85 14.9471 85.1278 14.7892 84.2365 14.7892C83.4013 14.7892 82.7018 14.9584 82.1376 15.3082C81.5621 15.6579 81.1332 16.1543 80.8286 16.7973C80.5239 17.4404 80.3772 18.2075 80.3772 19.0987V19.5049C80.3772 20.1592 80.4674 20.7684 80.6368 21.3099C80.8059 21.8627 81.0543 22.3252 81.3816 22.6975C81.7088 23.0698 82.0925 23.3631 82.5663 23.5549C83.0516 23.7354 83.6158 23.837 84.2704 23.837Z" fill="white"/>
<path d="M103.374 27.2886C101.535 27.2886 99.9778 27.0066 98.6914 26.4313C97.4051 25.8558 96.4234 24.9872 95.7463 23.8139C95.0692 22.6406 94.7307 21.1402 94.7307 19.3239C94.7307 17.5076 95.0692 16.0072 95.7463 14.8339C96.4234 13.6606 97.3938 12.7806 98.6576 12.2166C99.9215 11.6525 101.456 11.3592 103.25 11.3592C105.011 11.3592 106.5 11.6412 107.73 12.2053C108.96 12.7694 109.885 13.6155 110.506 14.7662C111.138 15.9169 111.443 17.3609 111.443 19.0983V20.2828H99.0977C99.1316 21.174 99.3234 21.9074 99.6505 22.494C99.9778 23.0807 100.452 23.5094 101.084 23.7801C101.716 24.0508 102.494 24.1862 103.42 24.1862C103.882 24.1862 104.322 24.1298 104.751 24.0283C105.18 23.9268 105.564 23.7574 105.913 23.5318C106.263 23.3062 106.557 23.0355 106.782 22.7084C107.019 22.3812 107.143 22.0089 107.155 21.5802H111.409C111.409 22.4715 111.206 23.2725 110.811 23.9832C110.416 24.694 109.874 25.2918 109.175 25.7769C108.475 26.262 107.64 26.6343 106.658 26.8938C105.688 27.1533 104.582 27.2886 103.374 27.2886ZM99.1654 17.643H106.985C106.985 17.1015 106.895 16.6276 106.714 16.2215C106.534 15.8154 106.275 15.4769 105.947 15.2061C105.62 14.9354 105.236 14.7436 104.785 14.6083C104.345 14.4842 103.848 14.4164 103.307 14.4164C102.472 14.4164 101.761 14.5405 101.174 14.7774C100.587 15.0144 100.125 15.3867 99.7972 15.8605C99.4813 16.3569 99.2669 16.9435 99.1654 17.643Z" fill="white"/>
<path d="M114.457 26.9398V11.6985H117.932L118.282 14.1918H118.485C118.677 13.6728 118.959 13.1877 119.332 12.7477C119.693 12.3077 120.144 11.958 120.674 11.7098C121.205 11.4616 121.814 11.3375 122.48 11.3375C122.83 11.3375 123.146 11.3714 123.439 11.4278C123.732 11.4842 123.981 11.5519 124.195 11.6308V15.3424H122.514C121.859 15.3424 121.295 15.444 120.821 15.6471C120.347 15.8501 119.952 16.1435 119.636 16.5158C119.32 16.888 119.083 17.328 118.936 17.8357C118.79 18.3433 118.722 18.9074 118.722 19.5392V26.9512H114.457V26.9398Z" fill="white"/>
<path d="M132.691 27.289C131.63 27.289 130.761 27.1198 130.084 26.7926C129.407 26.4654 128.911 25.9803 128.594 25.326C128.279 24.6718 128.121 23.8707 128.121 22.9118V14.8906H125.773V11.7093H128.29L129.102 7.27562H132.375V11.7093H135.794V14.8906H132.375V22.3026C132.375 22.878 132.499 23.318 132.736 23.6226C132.973 23.9272 133.435 24.0738 134.113 24.0738H135.794V26.8265C135.546 26.9054 135.23 26.9732 134.869 27.0407C134.496 27.1084 134.124 27.1649 133.74 27.21C133.345 27.2551 132.995 27.289 132.691 27.289Z" fill="white"/>
<path d="M146.323 27.2886C144.483 27.2886 142.926 27.0066 141.64 26.4313C140.353 25.8558 139.372 24.9872 138.695 23.8139C138.018 22.6406 137.679 21.1402 137.679 19.3239C137.679 17.5076 138.018 16.0072 138.695 14.8339C139.372 13.6606 140.342 12.7806 141.606 12.2166C142.87 11.6525 144.404 11.3592 146.199 11.3592C147.959 11.3592 149.448 11.6412 150.678 12.2053C151.908 12.7694 152.834 13.6155 153.454 14.7662C154.086 15.9169 154.391 17.3609 154.391 19.0983V20.2828H142.057C142.091 21.174 142.283 21.9074 142.61 22.494C142.937 23.0807 143.411 23.5094 144.043 23.7801C144.675 24.0508 145.454 24.1862 146.379 24.1862C146.842 24.1862 147.282 24.1298 147.711 24.0283C148.139 23.9268 148.523 23.7574 148.873 23.5318C149.223 23.3062 149.516 23.0355 149.742 22.7084C149.979 22.3812 150.103 22.0089 150.114 21.5802H154.368C154.368 22.4715 154.165 23.2725 153.77 23.9832C153.375 24.694 152.834 25.2918 152.134 25.7769C151.434 26.262 150.599 26.6343 149.618 26.8938C148.636 27.1533 147.541 27.2886 146.323 27.2886ZM142.114 17.643H149.934C149.934 17.1015 149.843 16.6276 149.663 16.2215C149.482 15.8154 149.223 15.4769 148.896 15.2061C148.568 14.9354 148.185 14.7436 147.733 14.6083C147.293 14.4842 146.797 14.4164 146.255 14.4164C145.42 14.4164 144.709 14.5405 144.122 14.7774C143.535 15.0144 143.073 15.3867 142.746 15.8605C142.43 16.3569 142.215 16.9435 142.114 17.643Z" fill="white"/>
<path d="M162.29 27.2895C161.612 27.2895 160.936 27.2217 160.259 27.0863C159.581 26.951 158.983 26.7252 158.453 26.4206C157.923 26.1161 157.494 25.6762 157.167 25.1007C156.839 24.5367 156.67 23.8034 156.67 22.9121C156.67 21.7727 156.941 20.8477 157.483 20.1482C158.024 19.4487 158.803 18.9185 159.83 18.5575C160.856 18.1965 162.064 17.9596 163.463 17.8468C164.862 17.734 166.408 17.6776 168.09 17.6776V16.775C168.09 16.2561 167.977 15.8274 167.751 15.4889C167.526 15.1505 167.187 14.8798 166.713 14.688C166.239 14.4962 165.607 14.3946 164.817 14.3946C164.118 14.3946 163.531 14.4624 163.034 14.609C162.538 14.7557 162.165 14.9475 161.906 15.1731C161.647 15.3987 161.511 15.6807 161.511 15.9853V16.335H157.336C157.313 16.2222 157.302 16.1207 157.291 16.0417C157.279 15.9627 157.279 15.8725 157.279 15.7484C157.279 14.8572 157.584 14.0788 158.182 13.4132C158.78 12.7476 159.66 12.2398 160.8 11.8788C161.94 11.5178 163.328 11.3373 164.93 11.3373C166.532 11.3373 167.875 11.5066 168.97 11.8563C170.064 12.206 170.899 12.7476 171.475 13.4809C172.05 14.2142 172.344 15.1505 172.344 16.2899V22.9799C172.344 23.3295 172.434 23.589 172.615 23.7808C172.795 23.9613 173.021 24.0517 173.292 24.0517H174.51V26.7705C174.296 26.8607 173.958 26.9623 173.495 27.0751C173.032 27.1766 172.491 27.233 171.87 27.233C171.159 27.233 170.561 27.1428 170.098 26.9623C169.636 26.7817 169.275 26.5335 169.015 26.2064C168.756 25.8792 168.564 25.5181 168.451 25.0895H168.214C167.808 25.5181 167.311 25.8904 166.724 26.2289C166.138 26.5673 165.472 26.8268 164.727 26.9961C163.994 27.1991 163.181 27.2895 162.29 27.2895ZM163.565 24.1531C164.129 24.1531 164.671 24.0854 165.201 23.9387C165.731 23.792 166.205 23.589 166.634 23.3295C167.063 23.0701 167.401 22.743 167.672 22.3481C167.943 21.9533 168.078 21.5245 168.078 21.062V20.2159C166.566 20.2159 165.291 20.2836 164.219 20.4302C163.159 20.5769 162.335 20.8138 161.771 21.1523C161.206 21.4907 160.913 21.9533 160.913 22.5625C160.913 22.946 161.026 23.262 161.263 23.4876C161.5 23.7245 161.816 23.8936 162.222 23.9952C162.639 24.108 163.079 24.1531 163.565 24.1531Z" fill="white"/>
<path d="M176.509 26.9389V11.6976H179.985L180.334 13.9878H180.538C180.944 13.3899 181.429 12.8935 182.005 12.4986C182.58 12.1038 183.189 11.8104 183.844 11.6299C184.498 11.4494 185.175 11.3592 185.875 11.3592C187.049 11.3592 188.053 11.5622 188.854 11.9796C189.655 12.3971 190.287 13.0627 190.705 13.9878H190.908C191.337 13.3899 191.833 12.8935 192.397 12.4986C192.962 12.1038 193.593 11.8104 194.282 11.6299C194.97 11.4494 195.67 11.3592 196.381 11.3592C197.521 11.3592 198.491 11.551 199.292 11.9345C200.093 12.3181 200.714 12.9385 201.165 13.7847C201.605 14.6308 201.831 15.7138 201.831 17.0337V26.9389H197.543V17.7558C197.543 17.2143 197.475 16.7517 197.351 16.3682C197.227 15.9846 197.046 15.6687 196.821 15.4431C196.584 15.2062 196.291 15.0482 195.941 14.9467C195.579 14.8451 195.196 14.8 194.801 14.8C194.169 14.8 193.582 14.9467 193.052 15.2513C192.521 15.5559 192.093 15.9733 191.777 16.5261C191.461 17.0789 191.303 17.6994 191.303 18.3988V26.9389H187.071V17.7558C187.071 17.2143 187.004 16.7517 186.868 16.3682C186.733 15.9846 186.541 15.6687 186.304 15.4431C186.067 15.2062 185.773 15.0482 185.435 14.9467C185.096 14.8451 184.701 14.8 184.261 14.8C183.618 14.8 183.043 14.9467 182.512 15.2513C181.982 15.5559 181.564 15.9733 181.249 16.5261C180.944 17.0789 180.786 17.6994 180.786 18.3988V26.9389H176.509Z" fill="white"/>
</g>
<mask id="mask1_4092_393" style="mask-type:luminance" maskUnits="userSpaceOnUse" x="7" y="8" width="30" height="23">
<path d="M36.5947 8.23578H7.12549V30.9496H36.5947V8.23578Z" fill="white"/>
</mask>
<g mask="url(#mask1_4092_393)">
<path d="M30.3231 11.7597H36.5215V14.1545C36.5215 17.4019 33.8979 20.0265 30.6508 20.0265H30.3227L30.3231 11.7597ZM21.501 8.28246H30.3231V30.8839H29.2738C22.8785 30.8839 21.5998 26.4224 21.5998 22.4533L21.501 8.28246ZM7.16931 13.3998C7.16931 17.4347 10.0553 18.9108 13.2694 19.403H7.16931V30.9497H13.04C18.9432 30.9497 19.6319 28.3254 19.6319 25.8323C19.6319 22.7816 17.5328 20.6496 14.2863 19.8291H19.6319V8.28246H13.7612C7.85802 8.28246 7.16931 10.9067 7.16931 13.3998Z" fill="white"/>
</g>
<mask id="mask2_4092_393" style="mask-type:alpha" maskUnits="userSpaceOnUse" x="114" y="33" width="89" height="13">
<path d="M117.452 40.1433C117.452 40.7373 117.565 41.2557 117.792 41.6985C118.03 42.1305 118.37 42.4653 118.813 42.7029C119.256 42.9297 119.801 43.0431 120.449 43.0431C121.097 43.0431 121.642 42.9297 122.085 42.7029C122.528 42.4653 122.863 42.1305 123.09 41.6985C123.327 41.2557 123.446 40.7373 123.446 40.1433V33.3716H126.508V40.2891C126.508 41.3907 126.254 42.3519 125.746 43.1727C125.239 43.9936 124.531 44.6362 123.624 45.1006C122.717 45.5542 121.659 45.781 120.449 45.781C119.239 45.781 118.181 45.5542 117.274 45.1006C116.367 44.6362 115.659 43.9936 115.152 43.1727C114.644 42.3519 114.39 41.3907 114.39 40.2891V33.3716H117.452V40.1433Z" fill="white"/>
<path d="M128.55 45.5218V33.3716H131.595V43.0593L130.769 42.4437L137.962 33.3716H141.202L131.304 45.5218H128.55ZM134.365 39.6411L136.569 37.7457L141.364 45.5218H137.897L134.365 39.6411Z" fill="white"/>
<path d="M144.448 38.7177H149C149.572 38.7177 150.026 38.5881 150.361 38.3289C150.695 38.0589 150.863 37.6863 150.863 37.2111C150.863 36.7359 150.695 36.3687 150.361 36.1095C150.026 35.8395 149.572 35.7045 149 35.7045H144.01L145.387 34.1978V45.5218H142.325V33.3716H149.405C150.312 33.3716 151.106 33.5336 151.786 33.8576C152.467 34.1816 152.996 34.6298 153.374 35.2022C153.752 35.7747 153.941 36.4443 153.941 37.2111C153.941 37.9671 153.752 38.6313 153.374 39.2037C152.996 39.7761 152.467 40.2243 151.786 40.5483C151.106 40.8723 150.312 41.0343 149.405 41.0343H144.448V38.7177ZM146.408 39.8355H149.858L154.33 45.5218H150.782L146.408 39.8355Z" fill="white"/>
<path d="M157.719 43.0755V40.5969H166.11V43.0755H157.719ZM163.972 33.3716L169.577 45.5218H166.321L161.51 34.6514H162.449L157.654 45.5218H154.382L160.003 33.3716H163.972Z" fill="white"/>
<path d="M170.652 33.3716H173.714V45.5218H170.652V33.3716Z" fill="white"/>
<path d="M187.176 43.432L186.188 43.6102V33.3716H189.152V45.5218H185.297L177.893 35.2832L178.881 35.105V45.5218H175.917V33.3716H179.886L187.176 43.432Z" fill="white"/>
<path d="M201.576 38.3127V40.5807H192.779V38.3127H201.576ZM194.853 39.4467L194.043 44.4688L192.763 43.0107H202.095V45.5218H190.981L191.921 39.4467L190.981 33.3716H202.014V35.8827H192.763L194.043 34.4246L194.853 39.4467Z" fill="white"/>
</mask>
<g mask="url(#mask2_4092_393)">
<path d="M204.091 33.256H114.064V39.5046H204.091V33.256Z" fill="#0367C8"/>
</g>
<mask id="mask3_4092_393" style="mask-type:alpha" maskUnits="userSpaceOnUse" x="114" y="33" width="89" height="13">
<path d="M117.452 40.1433C117.452 40.7373 117.565 41.2557 117.792 41.6985C118.03 42.1305 118.37 42.4653 118.813 42.7029C119.256 42.9297 119.801 43.0431 120.449 43.0431C121.097 43.0431 121.642 42.9297 122.085 42.7029C122.528 42.4653 122.863 42.1305 123.09 41.6985C123.327 41.2557 123.446 40.7373 123.446 40.1433V33.3716H126.508V40.2891C126.508 41.3907 126.254 42.3519 125.746 43.1727C125.239 43.9936 124.531 44.6362 123.624 45.1006C122.717 45.5542 121.659 45.781 120.449 45.781C119.239 45.781 118.181 45.5542 117.274 45.1006C116.367 44.6362 115.659 43.9936 115.152 43.1727C114.644 42.3519 114.39 41.3907 114.39 40.2891V33.3716H117.452V40.1433Z" fill="white"/>
<path d="M128.55 45.5218V33.3716H131.595V43.0593L130.769 42.4437L137.962 33.3716H141.202L131.304 45.5218H128.55ZM134.365 39.6411L136.569 37.7457L141.364 45.5218H137.897L134.365 39.6411Z" fill="white"/>
<path d="M144.448 38.7177H149C149.572 38.7177 150.026 38.5881 150.361 38.3289C150.695 38.0589 150.863 37.6863 150.863 37.2111C150.863 36.7359 150.695 36.3687 150.361 36.1095C150.026 35.8395 149.572 35.7045 149 35.7045H144.01L145.387 34.1978V45.5218H142.325V33.3716H149.405C150.312 33.3716 151.106 33.5336 151.786 33.8576C152.467 34.1816 152.996 34.6298 153.374 35.2022C153.752 35.7747 153.941 36.4443 153.941 37.2111C153.941 37.9671 153.752 38.6313 153.374 39.2037C152.996 39.7761 152.467 40.2243 151.786 40.5483C151.106 40.8723 150.312 41.0343 149.405 41.0343H144.448V38.7177ZM146.408 39.8355H149.858L154.33 45.5218H150.782L146.408 39.8355Z" fill="white"/>
<path d="M157.719 43.0755V40.5969H166.11V43.0755H157.719ZM163.972 33.3716L169.577 45.5218H166.321L161.51 34.6514H162.449L157.654 45.5218H154.382L160.003 33.3716H163.972Z" fill="white"/>
<path d="M170.652 33.3716H173.714V45.5218H170.652V33.3716Z" fill="white"/>
<path d="M187.176 43.432L186.188 43.6102V33.3716H189.152V45.5218H185.297L177.893 35.2832L178.881 35.105V45.5218H175.917V33.3716H179.886L187.176 43.432Z" fill="white"/>
<path d="M201.576 38.3127V40.5807H192.779V38.3127H201.576ZM194.853 39.4467L194.043 44.4688L192.763 43.0107H202.095V45.5218H190.981L191.921 39.4467L190.981 33.3716H202.014V35.8827H192.763L194.043 34.4246L194.853 39.4467Z" fill="white"/>
</mask>
<g mask="url(#mask3_4092_393)">
<path d="M204.091 39.5046H114.064V45.7532H204.091V39.5046Z" fill="#FFEA00"/>
</g>
</svg>
